<svg width="1393" height="450" viewBox="0 0 1393 450" fill="none" xmlns="http://www.w3.org/2000/svg">
<path d="M851.327 376.743C837.111 384.507 818.124 381.584 811.153 360.485C804.641 340.756 801.064 312.897 799.413 283.12C757.772 339.02 713.379 390.627 692.558 393.367C692.558 393.367 692.466 393.367 692.375 393.367C692.283 393.458 692.191 393.458 692.099 393.458C675.223 397.477 656.512 398.391 649.082 377.291C626.519 312.897 637.617 161.182 643.487 140.448C649.724 118.344 735.117 92.404 735.575 128.026C735.942 153.053 735.117 190.594 732.457 229.596C764.743 176.253 798.588 128.118 807.393 119.349C807.393 119.349 807.393 119.349 807.485 119.258C821.243 98.4323 890.768 78.155 891.318 111.311C892.51 185.57 883.522 359.115 851.327 376.743Z" fill="white"/>
<path d="M1161.19 90.3025C1150.46 118.709 1107.99 180.637 1071.03 218.908C1082.5 231.331 1093.41 246.036 1103.5 260.011C1126.52 292.163 1137.99 308.512 1146.15 330.251C1150.74 342.491 1144.13 351.076 1128.63 353.634C1114.14 356.009 1091.3 358.018 1073.78 356.922C1063.14 356.283 1032.05 322.305 1019.57 304.402C1010.68 291.797 1003.61 282.298 998.112 272.981C989.215 322.487 976.832 362.311 960.781 365.508C943.721 368.796 924.918 368.888 918.406 347.331C898.594 281.293 915.929 128.482 922.808 107.84C931.981 80.6206 1016.46 63.0834 1015.45 99.0711C1014.9 120.445 1013.06 150.587 1009.94 183.103C1030.31 139.534 1067.09 89.1152 1076.35 82.9954C1089.28 74.5009 1170.27 66.2803 1161.19 90.3025Z" fill="white"/>
<path d="M310.746 89.6632C381.647 154.879 358.074 398.299 317.075 435.109C300.107 450.362 282.496 446.069 271.948 438.58C224.253 404.51 260.575 216.899 260.024 213.702C221.685 302.758 166.377 455.295 115.38 449.266C31.4552 439.31 -12.2959 328.881 3.02158 283.303C11.8268 257.18 87.5886 296.273 87.5886 296.273C87.5886 296.273 224.895 10.8373 310.746 89.6632Z" fill="white"/>
<path d="M825.959 14.1258C821.19 -8.43499 728.001 -7.52159 722.131 43.1717C717.086 86.7406 721.03 100.533 761.02 93.591C800.461 86.7406 839.534 77.972 825.959 14.1258Z" fill="white"/>
<path d="M575.066 146.293C533.699 117.795 425.285 127.112 382.634 244.848C327.143 398.299 417.305 486.441 525.719 360.21C525.719 360.21 532.69 420.037 573.781 407.798C620.284 394.006 630.465 184.382 575.066 146.293ZM494.718 266.496C487.013 282.937 476.465 294.263 471.237 291.888C466.009 289.422 467.935 274.077 475.64 257.636C483.344 241.195 493.892 229.869 499.12 232.244C504.44 234.801 502.422 250.055 494.718 266.496Z" fill="white"/>
<path d="M1354.96 66.8287C1313.6 38.3308 1205.18 47.6474 1162.53 165.384C1107.04 318.834 1197.2 406.976 1305.62 280.745C1305.62 280.745 1312.59 340.573 1353.68 328.333C1400.18 314.541 1410.36 104.917 1354.96 66.8287ZM1274.61 187.123C1266.91 203.564 1256.36 214.89 1251.13 212.515C1245.91 210.049 1247.83 194.704 1255.54 178.263C1263.24 161.822 1273.79 150.496 1279.02 152.87C1284.34 155.336 1282.32 170.682 1274.61 187.123Z" fill="white"/>
</svg>
